<?xml version="1.0" encoding="UTF-8" standalone="no"?>
<!-- Created with Inkscape (http://www.inkscape.org/) -->

<svg
   width="12cm"
   height="8cm"
   viewBox="0 0 45.354388 30.236259"
   version="1.1"
   id="svg1"
   inkscape:export-filename="tshirt_front.png"
   inkscape:export-xdpi="96"
   inkscape:export-ydpi="96"
   inkscape:version="1.3.2 (091e20e, 2023-11-25, custom)"
   sodipodi:docname="tshirt_front.svg"
   xmlns:inkscape="http://www.inkscape.org/namespaces/inkscape"
   xmlns:sodipodi="http://sodipodi.sourceforge.net/DTD/sodipodi-0.dtd"
   xmlns="http://www.w3.org/2000/svg"
   xmlns:svg="http://www.w3.org/2000/svg">
  <sodipodi:namedview
     id="namedview1"
     pagecolor="#ffffff"
     bordercolor="#000000"
     borderopacity="0.25"
     inkscape:showpageshadow="2"
     inkscape:pageopacity="0.0"
     inkscape:pagecheckerboard="0"
     inkscape:deskcolor="#d1d1d1"
     inkscape:document-units="mm"
     inkscape:zoom="1.4778115"
     inkscape:cx="387.73551"
     inkscape:cy="125.18511"
     inkscape:window-width="1718"
     inkscape:window-height="1360"
     inkscape:window-x="233"
     inkscape:window-y="30"
     inkscape:window-maximized="0"
     inkscape:current-layer="layer1"
     inkscape:export-bgcolor="#000000ff" />
  <defs
     id="defs1">
    <rect
       x="62.202709"
       y="238.28423"
       width="513.89008"
       height="323.4541"
       id="rect1" />
  </defs>
  <g
     inkscape:label="Ebene 1"
     inkscape:groupmode="layer"
     id="layer1">
    <g
       id="g2"
       transform="translate(-1.0488496,1.4886896)">
      <path
         style="font-weight:800;font-size:192px;font-family:'League Spartan';-inkscape-font-specification:'League Spartan, Ultra-Bold';letter-spacing:-18.4px;white-space:pre;fill:#ffffff"
         d="m 112.31512,455.69258 q -7.87199,0 -16.223995,-1.344 -8.352,-1.248 -15.936,-4.704 -7.488,-3.456 -12.864,-9.984 l 19.488,-20.64 q 2.4,2.688 5.664,4.992 3.264,2.4 7.776005,3.84 4.51199,1.536 10.55999,1.536 5.47201,0 9.792,-1.632 4.32001,-1.632 6.72001,-5.184 2.49599,-3.456 2.49599,-8.928 v -1.728 h 33.40801 v 3.648 q 0,13.248 -6.81601,22.176 -6.71999,8.928 -18.24,13.44 -11.52,4.512 -25.824,4.512 z m 17.472,-42.24 v -11.808 q -0.95999,1.824 -4.31999,5.28 -3.36001,3.36 -8.928,6.144 -5.472,2.688 -12.864,2.688 -11.712005,0 -20.256005,-5.76 -8.544,-5.76 -13.248,-15.264 -4.608,-9.504 -4.608,-20.64 0,-11.136 4.608,-20.64 4.704,-9.504 13.248,-15.264 8.544,-5.856 20.256005,-5.856 7.008,0 12.192,2.112 5.28,2.112 8.64,4.992 3.456,2.88 4.89599,5.472 v -10.272 h 33.79201 v 78.816 z m -30.911995,-39.36 q 0,4.224 2.016005,7.776 2.016,3.456 5.47199,5.472 3.45601,2.016 7.87201,2.016 4.41599,0 7.77599,-2.016 3.45601,-2.016 5.376,-5.472 2.016,-3.552 2.016,-7.776 0,-4.224 -2.016,-7.68 -1.91999,-3.552 -5.376,-5.568 -3.36,-2.112 -7.77599,-2.112 -4.416,0 -7.87201,2.112 -3.45599,2.016 -5.47199,5.568 -2.016005,3.456 -2.016005,7.68 z m 127.135885,-1.152 -17.664,40.512 h -30.432 l -27.936,-78.816 h 36 l 12,42.624 17.472,-41.088 h 21.312 l 17.184,41.088 12.096,-42.624 h 36 l -27.744,78.816 h -30.336 z m 176.38409,-40.608 q 9.024,0 16.032,3.648 7.104,3.648 11.136,11.328 4.128,7.584 4.128,19.68 v 46.464 h -33.408 v -41.664 q 0,-6.528 -2.112,-11.04 -2.016,-4.512 -8.64,-4.512 -4.224,0 -7.104,2.112 -2.88,2.112 -4.32,5.664 -1.344,3.456 -1.344,7.776 v 41.664 h -31.104 v -41.664 q 0,-6.528 -2.112,-11.04 -2.016,-4.512 -8.544,-4.512 -4.224,0 -7.104,2.112 -2.88,2.016 -4.32,5.568 -1.44,3.456 -1.44,7.872 v 41.664 h -33.696 v -78.816 h 33.696 v 10.944 q 1.152,-2.976 5.184,-6.048 4.128,-3.072 9.888,-5.088 5.856,-2.112 12.192,-2.112 7.008,0 11.616,1.728 4.704,1.728 7.776,4.896 3.168,3.168 5.28,7.296 1.344,-3.168 5.376,-6.336 4.032,-3.264 10.08,-5.376 6.048,-2.208 12.864,-2.208 z"
         id="text1"
         transform="matrix(0.11126887,0,0,0.11126887,-5.1410528,-29.451714)"
         aria-label="gwm" />
      <path
         d="m 44.18479,16.553476 q -0.325795,0 -0.560794,-0.229658 -0.229659,-0.235 -0.229659,-0.566136 0,-0.331135 0.229659,-0.566135 0.234999,-0.235 0.560794,-0.235 0.336477,0 0.566135,0.235 0.235,0.235 0.235,0.566135 0,0.331136 -0.235,0.566136 -0.229658,0.229658 -0.566135,0.229658 z"
         id="text12"
         style="font-weight:500;font-size:10.6818px;line-height:0.9;font-family:'League Spartan';-inkscape-font-specification:'League Spartan, Medium';letter-spacing:-0.556346px;word-spacing:0px;fill:#ffffff;stroke-width:0.111269"
         aria-label="." />
    </g>
  </g>
</svg>
